<svg width="59" height="83" viewBox="0 0 59 83" fill="none" xmlns="http://www.w3.org/2000/svg">
<path fill-rule="evenodd" clip-rule="evenodd" d="M29.775 39.6769C24.3488 44.3199 19.9083 49.6105 18.5139 57.2394H18.5192C18.6905 57.2394 18.8272 57.2462 18.9406 57.252C19.1291 57.2617 19.2539 57.268 19.3685 57.2338C20.3871 56.9139 21.4101 56.6067 22.4332 56.2995C24.832 55.5791 27.231 54.8587 29.5758 53.9737C41.5445 49.4624 45.3403 38.3102 41.4975 26.0934C41.4374 26.1053 41.3757 26.1129 41.3134 26.1205C41.1745 26.1378 41.035 26.155 40.9155 26.2195C39.5547 26.9645 38.1915 27.7049 36.8283 28.4453C33.129 30.4546 29.4295 32.4643 25.7748 34.5616C21.9374 36.7626 19.0644 39.9402 17.6699 44.3968C17.6156 44.571 17.4792 44.7174 17.4041 44.7981C17.3845 44.8189 17.3692 44.8353 17.3605 44.8468C16.9604 44.4645 16.5858 44.052 16.2163 43.6454C15.4191 42.7678 14.6471 41.918 13.7012 41.4604C10.6755 39.9925 7.57497 38.6874 4.44145 37.3686C3.19326 36.843 1.93979 36.3157 0.683842 35.7746C-0.878472 41.2519 0.259176 45.9882 3.86083 50.1155C7.13228 53.8695 11.2214 55.4665 16.2439 55.1976C15.3055 50.7028 13.0249 47.2672 10.1991 44.1279C12.7198 45.4847 14.1158 47.8143 15.5589 50.2234C16.2289 51.3417 16.9093 52.4771 17.7169 53.5402C20.029 47.0749 23.8824 42.388 29.775 39.6769ZM23.5991 62.8813C22.2963 62.8813 21.24 63.987 21.24 65.3512C21.24 66.7151 22.2963 67.8208 23.5991 67.8208H43.3114C44.6143 67.8208 45.6705 66.7151 45.6705 65.3512C45.6705 63.987 44.6143 62.8813 43.3114 62.8813H23.5991ZM23.4945 71.4296C23.4945 70.0657 24.5507 68.96 25.8535 68.96H40.9521C42.2552 68.96 43.3114 70.0657 43.3114 71.4296C43.3114 72.7936 42.2552 73.8995 40.9521 73.8995H25.8535C24.5507 73.8995 23.4945 72.7936 23.4945 71.4296ZM27.5284 74.9286C26.3718 74.9286 25.4341 75.9103 25.4341 77.1213C25.4341 78.1174 26.0135 79.0131 26.8969 79.3829L28.8223 80.1893C29.1792 80.3387 29.4949 80.5789 29.7411 80.8879C31.5921 83.2134 35.004 83.2134 36.855 80.8879C37.1011 80.5789 37.4169 80.3387 37.7738 80.1893L39.6991 79.3829C40.5826 79.0131 41.1619 78.1174 41.1619 77.1213C41.1619 75.9103 40.2242 74.9286 39.0677 74.9286H27.5284Z" fill="#18FF00"/>
<path fill-rule="evenodd" clip-rule="evenodd" d="M57.3389 11.7074C57.8475 11.2121 58.3571 10.7159 58.8686 10.2195H58.8632C58.7615 10.0799 58.6752 9.95528 58.5972 9.84235C58.4537 9.63516 58.3374 9.46727 58.2015 9.31781C58.1019 9.20592 58.0031 9.09317 57.9042 8.98037C57.5071 8.52773 57.1094 8.07437 56.668 7.67384C51.2214 2.72545 44.772 0.377695 37.6659 0.0478098C29.9242 -0.309598 22.5293 1.2959 16.2635 6.24981C7.47143 13.2051 4.19414 22.7336 5.40747 34.0762C5.54388 35.3684 6.25287 35.9952 7.36651 36.3196C10.6594 37.2818 13.8528 38.4694 16.6049 40.8447C16.6895 40.7427 16.774 40.6415 16.8583 40.5403C18.3989 38.6946 19.8482 36.9581 18.9368 34.2579C18.8024 33.8571 18.7629 33.4233 18.7234 32.9888C18.7028 32.7615 18.6822 32.5342 18.648 32.3115C16.9725 21.5404 24.168 12.2484 34.5985 11.6546C40.4126 11.3192 45.4126 13.2436 49.7351 17.2683C50.0661 17.5762 50.9064 17.8566 51.1061 17.6696C53.2103 15.7273 55.2669 13.7247 57.3389 11.7074ZM24.7149 57.5378C24.5084 57.6142 24.2683 57.7032 23.9737 57.8067C24.2557 57.9404 24.4813 58.0553 24.6717 58.1524C25.0061 58.3229 25.2329 58.4386 25.4706 58.505C36.5105 61.6004 46.8781 59.8905 56.5315 53.5622C57.1986 53.1277 57.8182 51.9842 57.8288 51.1649C57.886 46.4567 57.87 41.7457 57.854 37.0339C57.8468 34.8349 57.8393 32.6357 57.8393 30.4365C57.8393 29.4523 57.4717 29.106 56.5158 29.1225C53.5798 29.1776 50.6387 29.2049 47.7026 29.1116C46.3581 29.0675 46.0009 29.5624 46.022 30.904C46.0562 32.9878 46.0508 35.0716 46.0458 37.1554C46.0404 39.2393 46.0351 41.3231 46.0693 43.4069C46.0954 45.1498 45.5965 46.255 43.9421 46.9533C42.5083 47.5581 41.0167 48.3609 39.9401 49.4823C35.9169 53.6667 30.9957 55.8989 25.6017 57.2405C25.3371 57.307 25.0786 57.4029 24.7149 57.5378Z" fill="#18FF00"/>
</svg>
