<svg width="295" height="94" viewBox="0 0 295 94" fill="none" xmlns="http://www.w3.org/2000/svg">
<path fill-rule="evenodd" clip-rule="evenodd" d="M270.27 68.218L268.625 70.3051C267.709 69.6707 266.444 69.3537 264.83 69.3537C262.621 69.3537 260.719 70.0289 259.124 71.3794C257.552 72.7299 256.764 74.6123 256.764 77.0269C256.764 79.3801 257.491 81.242 258.945 82.613C260.418 83.9635 262.381 84.6387 264.83 84.6387C266.185 84.6387 267.222 84.9048 267.939 85.4368C268.656 85.9687 269.015 86.6952 269.015 87.6159C269.015 88.4959 268.586 89.1711 267.728 89.6417C266.873 90.1328 265.887 90.3783 264.772 90.3783C263.537 90.3578 262.49 90.0407 261.634 89.4268C260.777 88.8335 260.379 88.0355 260.44 87.0328H256.825C256.745 89.2018 257.411 90.9001 258.826 92.1278C260.239 93.3761 262.221 94.0001 264.772 94.0001C266.146 94.0001 267.421 93.7751 268.596 93.3248C269.79 92.8746 270.786 92.1484 271.583 91.1456C272.4 90.1635 272.81 88.987 272.81 87.6159C272.81 85.2424 271.593 83.6053 269.163 82.7051C271.593 81.5593 272.81 79.6665 272.81 77.0269C272.81 75.4103 272.24 73.9064 271.106 72.515L272.957 70.3051L270.27 68.218ZM261.664 73.9269C262.499 73.1903 263.556 72.822 264.83 72.822C266.066 72.822 267.091 73.2108 267.908 73.9883C268.746 74.7455 269.163 75.7583 269.163 77.0269C269.163 78.2954 268.746 79.3083 267.908 80.0655C267.091 80.8227 266.066 81.2011 264.83 81.2011C263.597 81.2011 262.55 80.8227 261.695 80.0655C260.837 79.3083 260.408 78.2954 260.408 77.0269C260.408 75.6764 260.828 74.643 261.664 73.9269ZM286.204 69.8447H290.239L280.975 91.913H276.972L279.989 84.7308L274.103 69.8447H278.346L280.588 76.3823L281.993 80.6487L283.515 76.4744L286.204 69.8447ZM291.353 84.6694C290.917 84.2806 290.697 83.7385 290.697 83.0427C290.697 82.3469 290.917 81.8048 291.353 81.416C291.814 81.0271 292.31 80.8328 292.848 80.8328C293.386 80.8328 293.873 81.0271 294.312 81.416C294.77 81.8048 295 82.3469 295 83.0427C295 83.7385 294.77 84.2806 294.312 84.6694C293.873 85.0583 293.386 85.2526 292.848 85.2526C292.31 85.2526 291.814 85.0583 291.353 84.6694ZM244.683 69.8447H248.058L248.327 71.5942C248.846 70.7348 249.442 70.1618 250.12 69.8754C250.796 69.5891 251.584 69.4457 252.48 69.4457C254.074 69.4457 255.339 69.9267 256.275 70.8883L254.632 74.1418C253.873 73.4871 252.999 73.1596 252.003 73.1596C250.946 73.1596 250.069 73.4767 249.374 74.1111C248.676 74.7249 248.327 75.6865 248.327 76.9962V84.9764H244.683V69.8447ZM230.517 78.7457H242.021C242.3 75.7175 241.762 73.4051 240.407 71.8091C239.053 70.1928 237.111 69.3844 234.581 69.3844C232.21 69.3844 230.308 70.121 228.874 71.5942C227.459 73.0675 226.752 74.9705 226.752 77.3031C226.752 79.7586 227.47 81.7229 228.904 83.1962C230.358 84.6491 232.34 85.3754 234.85 85.3754C236.025 85.3754 237.19 85.1709 238.346 84.7615C239.501 84.3318 240.447 83.7179 241.184 82.9199L238.854 80.5566C238.455 80.9863 237.878 81.3343 237.121 81.6001C236.364 81.8457 235.627 81.9684 234.91 81.9684C233.654 81.9684 232.639 81.6719 231.862 81.0784C231.085 80.485 230.637 79.7076 230.517 78.7457ZM238.525 75.6457H230.577C230.836 74.6841 231.334 73.9576 232.071 73.4665C232.808 72.9551 233.684 72.6992 234.7 72.6992C235.776 72.6992 236.652 72.9551 237.33 73.4665C238.007 73.9576 238.405 74.6841 238.525 75.6457ZM224.174 84.9764H220.529V77.0576C220.529 75.8707 220.22 74.8989 219.603 74.1418C218.985 73.3846 218.109 73.0061 216.973 73.0061C215.878 73.0061 214.971 73.4153 214.254 74.2338C213.557 75.0524 213.209 76.0549 213.209 77.2417V84.9764H209.593V69.8141H212.85L213.089 71.8705C214.603 70.3564 216.216 69.5992 217.93 69.5992C219.722 69.5992 221.206 70.2643 222.382 71.5942C223.577 72.9039 224.174 74.7148 224.174 77.0269V84.9764ZM195.429 78.7457H206.932C207.211 75.7175 206.673 73.4051 205.319 71.8091C203.964 70.1928 202.022 69.3844 199.492 69.3844C197.122 69.3844 195.219 70.121 193.785 71.5942C192.371 73.0675 191.664 74.9705 191.664 77.3031C191.664 79.7586 192.381 81.7229 193.815 83.1962C195.269 84.6491 197.251 85.3754 199.761 85.3754C200.936 85.3754 202.102 85.1709 203.257 84.7615C204.412 84.3318 205.359 83.7179 206.096 82.9199L203.765 80.5566C203.367 80.9863 202.789 81.3343 202.032 81.6001C201.275 81.8457 200.538 81.9684 199.821 81.9684C198.566 81.9684 197.55 81.6719 196.773 81.0784C195.996 80.485 195.548 79.7076 195.429 78.7457ZM203.436 75.6457H195.488C195.747 74.6841 196.245 73.9576 196.982 73.4665C197.719 72.9551 198.596 72.6992 199.612 72.6992C200.688 72.6992 201.564 72.9551 202.241 73.4665C202.918 73.9576 203.317 74.6841 203.436 75.6457Z" fill="#00A859"/>
<path fill-rule="evenodd" clip-rule="evenodd" d="M7.97399 17.0905C12.4879 17.1289 16.0948 13.3475 16.121 8.55072C16.1472 3.73203 12.6032 0 8.00544 0C3.57021 0.00548827 0.00524841 3.79788 5.80897e-06 8.52877C-0.00523678 13.2487 3.53875 17.052 7.97399 17.0905ZM171.291 48.3571C173.278 44.9874 174.767 41.4255 175.795 37.3312H175.8C175.546 37.3312 175.315 37.3231 175.1 37.3155C174.679 37.3005 174.319 37.2878 173.965 37.3421C172.946 37.5019 171.929 37.68 170.913 37.8581C169.139 38.1688 167.366 38.4795 165.582 38.6924C163.386 38.9557 161.876 40.0149 160.523 41.8317C155.029 49.2134 145.026 50.7993 138.048 45.5031C135.584 43.6263 134.137 41.0468 133.387 37.8198C133.579 37.7673 133.756 37.7132 133.923 37.6625C134.244 37.5643 134.531 37.4771 134.824 37.4299C138.444 36.8345 142.065 36.2417 145.687 35.6492L145.701 35.6467C149.317 35.0549 152.934 34.4628 156.549 33.8682C158.597 33.5314 160.645 33.1932 162.694 32.8554C166.953 32.1522 171.212 31.4493 175.475 30.7563C176.277 30.63 176.927 30.5037 176.66 29.3731C176.426 28.3783 176.227 27.3705 176.028 26.3627C175.634 24.363 175.239 22.3633 174.573 20.4658C168.397 2.88135 149.519 -3.28747 135.553 3.53993C120.475 10.9107 112.726 33.2204 125.445 49.8554C139.018 67.6099 163.04 62.3467 171.291 48.3571ZM145.183 13.4188C152.02 12.0742 160.114 16.591 160.848 22.3373H160.843C155.732 23.1736 150.619 24.0115 145.508 24.8493L145.479 24.854L145.388 24.8689L145.381 24.8701L145.374 24.8712C141.171 25.5601 136.969 26.2488 132.769 26.9365C131.626 21.8324 138.195 14.7964 145.183 13.4188ZM204.713 47.5175C200.582 45.8435 197.929 42.5944 196.744 37.8253V37.8142C197.088 37.7424 197.412 37.6696 197.724 37.5998L197.724 37.5996L197.725 37.5993C198.269 37.4773 198.777 37.3637 199.287 37.2764C200.719 37.0349 202.151 36.7937 203.583 36.5522C215.273 34.5813 226.964 32.6101 238.659 30.6739C239.629 30.5148 239.854 30.0978 239.786 29.1646C238.502 11.1467 223.209 -2.23367 204.907 1.49287C191.9 4.13822 182.469 16.9808 182.28 30.7728C182.06 46.6834 194.548 60.459 209.767 61.0954C221.851 61.606 232.111 55.2011 236.813 44.0928C237.429 42.6363 237.883 41.1039 238.353 39.5145C238.576 38.7624 238.803 37.9973 239.052 37.2216C238.771 37.2051 238.552 37.1848 238.372 37.1681C238.073 37.1402 237.883 37.1227 237.699 37.1501C237.406 37.1963 237.113 37.2424 236.82 37.2886C234.013 37.7305 231.2 38.1736 228.399 38.6705C226.648 38.9833 225.096 39.7352 224.084 41.3761C219.581 48.6645 210.621 49.9105 204.713 47.5175ZM207.953 13.6439C215.486 12.1511 222.805 15.9325 224.226 22.266C220.008 22.9739 215.811 23.6776 211.625 24.3793L211.613 24.3812C206.36 25.2619 201.125 26.1395 195.89 27.0189C195.114 21.5086 201.101 15.005 207.953 13.6439ZM294.859 42.9566C294.859 44.4375 294.857 45.9184 294.852 47.399V47.3995V47.3998V47.4003C294.845 51.2861 294.835 55.1714 294.886 59.0537C294.905 60.6124 294.256 61.0898 292.919 61.0789C292.349 61.0738 291.777 61.0677 291.208 61.0617H291.205C288.688 61.0353 286.168 61.0086 283.65 61.0624C282.383 61.0898 282.051 60.5959 282.056 59.3335C282.085 51.4578 282.083 43.5852 282.08 35.7111V35.7106V35.7101V35.7096C282.078 33.3452 282.078 30.9806 282.078 28.6157C282.078 24.6312 280.934 21.1462 277.852 18.6325C274.094 15.5701 269.909 14.9334 265.611 17.1068C261.433 19.2198 259.277 22.9079 259.262 27.7926C259.233 34.6569 259.238 41.5189 259.243 48.3817V48.3822V48.3824V48.3827C259.245 51.8132 259.248 55.2437 259.245 58.675C259.245 61.0403 259.236 61.0403 256.956 61.0403C256.09 61.0403 255.228 61.0373 254.363 61.0345H254.36C252.136 61.0267 249.909 61.0188 247.687 61.0624C246.529 61.0842 246.151 60.6837 246.156 59.4542C246.173 54.8906 246.171 50.328 246.166 45.7657C246.158 39.8153 246.154 33.8652 246.197 27.9133C246.292 16.0585 254.113 5.93817 265.051 3.30928C276.19 0.631008 287.227 6.09183 292.332 16.9037C293.873 20.1693 294.743 23.6872 294.796 27.3535C294.847 30.9643 294.835 34.5727 294.823 38.182V38.1827V38.1833V38.1888C294.818 39.7778 294.813 41.3669 294.813 42.9566H294.855H294.859ZM90.1695 41.0988V41.1031C90.1712 41.8377 90.1726 42.5741 90.1726 43.3133V43.4891C90.1726 44.8545 90.1748 46.22 90.177 47.5854V47.5996C90.183 51.4817 90.1891 55.3637 90.1465 59.246C90.1307 60.4808 90.524 60.8704 91.6773 60.8486C94.9225 60.7882 98.1677 60.7882 101.413 60.8486C102.545 60.8704 102.844 60.4039 102.839 59.3007C102.823 56.8019 102.848 54.3031 102.872 51.8043V51.8028C102.881 50.9104 102.89 50.018 102.897 49.1254C102.913 47.0718 102.925 45.0171 102.937 42.9622V42.9556V42.949C102.966 37.8966 102.995 32.8417 103.096 27.7926C103.216 21.75 105.696 18.3967 111.211 16.5801C111.802 16.3842 112.411 16.2505 113.02 16.1169C113.691 15.9696 114.361 15.8224 115.007 15.5922C115.458 15.433 116.05 14.7799 116.061 14.3354C116.119 12.0659 116.117 9.79652 116.114 7.5271V7.52626C116.113 6.34932 116.111 5.17239 116.118 3.99546C116.124 3.09537 115.72 2.79902 114.949 2.96915C113.947 3.19014 112.923 3.36032 111.898 3.53055C109.59 3.91406 107.281 4.29772 105.219 5.26325C96.1755 9.49471 91.3679 17.2277 90.5293 27.4194C90.1496 32.0023 90.1595 36.5116 90.1695 41.0988ZM1.86018 37.2024C1.86625 32.9168 1.87232 28.6299 1.82969 24.3459C1.8192 23.0836 2.11279 22.5897 3.39722 22.6281C6.47989 22.7104 9.57301 22.6994 12.6557 22.6281C13.8457 22.6006 14.155 23.0562 14.1498 24.2581C14.1131 35.9097 14.1131 47.5613 14.1498 59.2074C14.1498 60.3928 13.8614 60.8648 12.6609 60.8318C9.52581 60.7606 6.38027 60.7661 3.2452 60.8318C2.12328 60.8539 1.82445 60.4148 1.82969 59.2952C1.86115 54.9071 1.85721 50.516 1.85328 46.1264C1.85197 44.6633 1.85066 43.2007 1.85066 41.7383H1.8559C1.8559 40.2265 1.85804 38.7144 1.86018 37.2024Z" fill="#00A859"/>
<path fill-rule="evenodd" clip-rule="evenodd" d="M49.4271 42.7209C44.0009 47.3639 39.5604 52.6545 38.166 60.2833H38.1713C38.3426 60.2833 38.4793 60.2901 38.5927 60.296C38.7812 60.3056 38.906 60.312 39.0206 60.2777C40.0392 59.9578 41.0622 59.6507 42.0853 59.3435C44.4841 58.6231 46.8831 57.9027 49.2279 57.0177C61.1966 52.5063 64.9924 41.3541 61.1496 29.1373C61.0895 29.1493 61.0277 29.1569 60.9655 29.1645C60.8266 29.1817 60.6871 29.199 60.5676 29.2634C59.2068 30.0084 57.8436 30.7488 56.4804 31.4893C52.7811 33.4985 49.0816 35.5083 45.4269 37.6055C41.5895 39.8065 38.7165 42.9842 37.322 47.4407C37.2677 47.615 37.1313 47.7613 37.0562 47.842C37.0366 47.8628 37.0213 47.8793 37.0126 47.8907C36.6125 47.5084 36.2379 47.096 35.8684 46.6894C35.0712 45.8117 34.2992 44.9619 33.3533 44.5043C30.3276 43.0364 27.2271 41.7313 24.0935 40.4125C22.8454 39.887 21.5919 39.3596 20.3359 38.8185C18.7736 44.2958 19.9113 49.0322 23.5129 53.1595C26.7844 56.9134 30.8735 58.5105 35.896 58.2416C34.9576 53.7467 32.677 50.3111 29.8512 47.1718C32.3719 48.5287 33.7679 50.8583 35.211 53.2673C35.881 54.3857 36.5614 55.5211 37.369 56.5842C39.6811 50.1189 43.5345 45.432 49.4271 42.7209ZM43.2512 65.9252C41.9484 65.9252 40.8921 67.0309 40.8921 68.3951C40.8921 69.759 41.9484 70.8647 43.2512 70.8647H62.9635C64.2664 70.8647 65.3226 69.759 65.3226 68.3951C65.3226 67.0309 64.2664 65.9252 62.9635 65.9252H43.2512ZM43.1466 74.4736C43.1466 73.1096 44.2028 72.0039 45.5056 72.0039H60.6042C61.9073 72.0039 62.9635 73.1096 62.9635 74.4736C62.9635 75.8375 61.9073 76.9435 60.6042 76.9435H45.5056C44.2028 76.9435 43.1466 75.8375 43.1466 74.4736ZM47.1805 77.9726C46.0239 77.9726 45.0862 78.9542 45.0862 80.1652C45.0862 81.1613 45.6656 82.057 46.549 82.4268L48.4744 83.2332C48.8313 83.3826 49.147 83.6229 49.3932 83.9318C51.2442 86.2574 54.6561 86.2574 56.507 83.9318C56.7532 83.6229 57.069 83.3826 57.4259 83.2332L59.3512 82.4268C60.2347 82.057 60.814 81.1613 60.814 80.1652C60.814 78.9542 59.8763 77.9726 58.7198 77.9726H47.1805Z" fill="#00A859"/>
<path fill-rule="evenodd" clip-rule="evenodd" d="M76.991 14.7514C77.4996 14.2561 78.0092 13.7599 78.5207 13.2635H78.5153C78.4136 13.1238 78.3273 12.9992 78.2493 12.8863C78.1058 12.6791 77.9895 12.5112 77.8536 12.3618C77.754 12.2499 77.6552 12.1371 77.5563 12.0243C77.1592 11.5717 76.7615 11.1183 76.3201 10.7178C70.8735 5.7694 64.4241 3.42164 57.318 3.09176C49.5763 2.73435 42.1814 4.33984 35.9156 9.29376C27.1235 16.249 23.8462 25.7775 25.0596 37.1202C25.196 38.4123 25.905 39.0391 27.0186 39.3636C30.3115 40.3257 33.5049 41.5133 36.257 43.8886C36.3416 43.7866 36.4261 43.6854 36.5104 43.5842C38.051 41.7386 39.5003 40.002 38.5889 37.3018C38.4545 36.901 38.415 36.4673 38.3755 36.0327C38.3549 35.8055 38.3343 35.5782 38.3001 35.3555C36.6246 24.5843 43.8201 15.2923 54.2506 14.6985C60.0647 14.3631 65.0647 16.2875 69.3872 20.3122C69.7182 20.6201 70.5585 20.9005 70.7582 20.7136C72.8624 18.7712 74.919 16.7687 76.991 14.7514ZM44.367 60.5818C44.1605 60.6581 43.9204 60.7472 43.6258 60.8506C43.9078 60.9843 44.1334 61.0992 44.3238 61.1964C44.6582 61.3668 44.885 61.4825 45.1227 61.549C56.1626 64.6444 66.5302 62.9345 76.1836 56.6061C76.8507 56.1716 77.4703 55.0281 77.4809 54.2088C77.5381 49.5006 77.5221 44.7896 77.5061 40.0779C77.4989 37.8789 77.4914 35.6797 77.4914 33.4804C77.4914 32.4962 77.1238 32.15 76.1679 32.1665C73.2319 32.2215 70.2908 32.2489 67.3547 32.1555C66.0102 32.1114 65.653 32.6063 65.6741 33.9479C65.7083 36.0317 65.7029 38.1156 65.6979 40.1994C65.6925 42.2832 65.6872 44.367 65.7214 46.4508C65.7475 48.1937 65.2486 49.2989 63.5942 49.9973C62.1604 50.602 60.6688 51.4048 59.5922 52.5263C55.569 56.7107 50.6478 58.9429 45.2538 60.2845C44.9892 60.3509 44.7307 60.4468 44.367 60.5818Z" fill="#00A859"/>
</svg>
